<?xml version="1.0" encoding="UTF-8"?>
<svg id="Layer_1" xmlns="http://www.w3.org/2000/svg" version="1.1" viewBox="0 0 50 50">
  
  <defs>
    
  </defs>
  <path class="st0" d="M44.68,19.61c0,10.23-8.29,18.52-18.51,18.52S7.67,29.84,7.67,19.61,15.95,1.08,26.18,1.08s18.51,8.29,18.51,18.52ZM35.62,19.6c0-5.22-4.23-9.45-9.44-9.45s-9.44,4.23-9.44,9.45,4.23,9.45,9.44,9.45,9.44-4.23,9.44-9.45Z"></path>
  <path class="st0" d="M36.74,48.73h-.84c-.07-.07.15-.73-.18-.6-.37.14-.63.49-1.19.62-.81.19-1.73.2-2.45-.23-1.1-.66-1.15-2.33-.15-3.09.28-.21,1.43-.67,1.74-.67h2.11c.36-2.32-2.41-2.44-3.67-1.21l-.53-.55c-.07-.42,1.54-.93,1.89-.98,1.26-.17,2.67.07,3.1,1.41.03.09.18.75.18.79v4.52ZM35.77,45.35c-1,.08-3.48.01-3.61,1.4-.16,1.69,3.11,1.88,3.56-.06.1-.44.04-.89.05-1.33Z"></path>
  <path class="st0" d="M29.63,45.59h-5.42c-.03,2.44,3.21,3.49,4.46,1.33l.72.65c-1.78,2.28-5.76,1.42-6.12-1.57-.61-5.06,6.75-5.53,6.37-.41ZM24.21,44.99h4.45c.18-3.05-4.38-2.84-4.45,0Z"></path>
  <path class="st0" d="M14.74,45.42c0,1.93-1.56,3.5-3.49,3.5s-3.49-1.57-3.49-3.5,1.56-3.5,3.49-3.5,3.49,1.57,3.49,3.5ZM13.86,45.43c0-1.45-1.17-2.62-2.61-2.62s-2.61,1.17-2.61,2.62,1.17,2.62,2.61,2.62,2.61-1.17,2.61-2.62Z"></path>
  <path class="st0" d="M44.56,48.73h-.84v-4.28s-.18-.66-.21-.75c-.58-1.4-2.76-1.09-3.37.18-.05.09-.27.66-.27.69v4.16h-.84s-.12-6.63-.12-6.63l.91.11.11.97c.73-1.38,3.19-1.66,4.15-.42.14.19.48.9.48,1.08v4.88Z"></path>
  <path class="st0" d="M22.05,43.18l-.66.48c-1.23-1.62-3.92-.88-4.15,1.15-.14,1.23.13,2.57,1.38,3.08,1.16.48,1.89.17,2.77-.61l.66.37c-.46,1.06-2.02,1.32-3.06,1.19-3.93-.48-3.71-7.25.95-6.85.67.06,1.89.54,2.11,1.2Z"></path>
</svg>